# xmcd
#
# Track frame offsets:
#	150
#	12846
#	27252
#	45823
#	63844
#	79401
#	96674
#	108583
#	133212
#	149656
#	165962
#	179024
#	193660
#
# Disc length: 2814 seconds
#
# Revision: 1
# Processed by: cddbd v1.5.2PL0 Copyright (c) Steve Scherf et al.
# Submitted via: audiograbber 1.83.01
#
DISCID=b50afc0d
DTITLE=Various Artist - CDX 560
DYEAR=2012
DGENRE=Country
TTITLE0=Easton Corbin - All Over The Road
TTITLE1=The  Henningsens - American Beautiful
TTITLE2=Carrie Underwood - Two Black Cadillacs
TTITLE3=Austin Webb - It's All Good
TTITLE4=Taylor Made - That's What Life Is
TTITLE5=Ray Scott - Those Jeans
TTITLE6=Smokey River Boys - All Pure Country
TTITLE7=Verlan Brock - America's Dream
TTITLE8=Kelly Parkes - As Good As Me
TTITLE9=Andrew Peterson - Dancing In The Minefields
TTITLE10=Danny Griego - I Wear My Own Kind Of Hat
TTITLE11=Cold Beer and Broads - Get Me Home By Christmas Eve
TTITLE12=Doug Wayne - That Star Stil - Shines
EXTD=
EXTT0=
EXTT1=
EXTT2=
EXTT3=
EXTT4=
EXTT5=
EXTT6=
EXTT7=
EXTT8=
EXTT9=
EXTT10=
EXTT11=
EXTT12=
PLAYORDER=
